<svg xmlns="http://www.w3.org/2000/svg" width="1024" height="1024" viewBox="0 0 1024 1024">
<g>
<path d="M 0.00 0.00 L 1024.00 0.00 L 1024.00 1024.00 L 0.00 1024.00 ZM 483.93 965.83 C500.12,990.14 513.70,1009.69 514.11,1009.27 C515.37,1007.95 600.53,880.44 685.25,753.00 L 713.50 710.50 L 830.86 710.25 C941.88,710.01 948.17,709.90 947.54,708.25 C946.71,706.08 915.92,656.96 885.63,609.50 C873.00,589.70 857.86,565.84 851.98,556.47 C846.11,547.11 838.82,535.63 835.78,530.97 C832.74,526.31 822.71,510.58 813.48,496.00 C793.95,465.15 784.03,449.70 726.03,359.74 C720.27,350.81 702.65,323.48 686.88,299.00 C640.09,226.39 637.96,223.10 628.45,208.50 C623.44,200.80 614.15,186.40 607.82,176.50 C601.48,166.60 580.48,133.87 561.15,103.76 C541.82,73.66 523.48,44.97 520.40,40.01 C517.32,35.06 514.47,31.00 514.07,31.00 C513.27,31.00 508.87,37.62 492.78,63.00 C467.10,103.52 448.35,132.98 436.48,151.50 C429.42,162.50 422.25,173.75 420.55,176.50 C418.84,179.25 415.38,184.65 412.86,188.50 C410.34,192.35 405.31,200.23 401.68,206.00 C398.06,211.77 392.48,220.48 389.30,225.35 C386.11,230.21 380.80,238.43 377.50,243.60 C374.20,248.77 367.48,259.19 362.57,266.75 C357.65,274.31 347.49,290.17 339.98,302.00 C313.10,344.31 267.73,415.59 264.54,420.50 C256.88,432.31 237.16,463.36 222.33,487.00 C213.53,501.02 197.40,526.67 186.49,544.00 C175.57,561.33 160.29,585.62 152.52,598.00 C144.74,610.38 125.70,640.41 110.19,664.74 C94.69,689.07 82.00,709.21 82.00,709.49 C82.00,709.77 133.89,710.00 197.31,710.00 L 312.61 710.00 L 378.87 809.45 C415.32,864.16 447.24,911.77 449.82,915.27 C452.39,918.77 467.75,941.52 483.93,965.83 ZM 364.32 481.24 L 355.50 495.99 L 296.75 495.99 C264.44,496.00 238.00,495.72 238.00,495.37 C238.00,494.18 244.43,483.46 255.45,466.26 C261.53,456.78 271.88,440.58 278.45,430.26 C285.02,419.94 292.26,408.58 294.55,405.00 C296.83,401.42 308.27,383.42 319.96,365.00 C331.66,346.58 343.76,327.56 346.86,322.75 C377.51,275.19 403.00,235.03 403.00,234.31 C403.00,233.93 403.84,232.70 404.86,231.56 C405.88,230.43 412.16,220.95 418.82,210.50 C431.85,190.05 470.77,129.19 497.03,88.21 C505.95,74.30 513.69,63.06 514.24,63.25 C515.06,63.52 542.92,106.04 558.84,131.30 C564.11,139.67 572.97,153.38 583.83,170.00 C589.04,177.98 596.09,188.77 599.51,194.00 C617.98,222.27 629.65,240.46 630.10,241.69 C630.32,242.28 636.03,251.26 642.80,261.63 C664.43,294.81 726.16,390.17 738.50,409.47 C742.90,416.35 752.10,430.65 758.94,441.24 C782.26,477.32 793.00,494.33 793.00,495.17 C793.00,495.63 766.56,495.99 734.25,495.98 L 675.50 495.97 L 660.55 471.73 C652.33,458.41 645.02,447.14 644.30,446.70 C643.59,446.26 643.00,445.25 643.00,444.45 C643.00,443.66 640.01,438.17 636.36,432.25 C632.71,426.34 627.97,418.58 625.83,415.00 C621.72,408.15 611.17,390.85 596.86,367.50 C573.24,328.98 521.91,244.88 516.75,236.25 C515.68,234.46 514.51,233.00 514.15,233.01 C513.79,233.01 509.69,239.42 505.04,247.26 C493.88,266.04 480.34,288.74 439.00,358.00 C408.34,409.38 399.73,423.59 378.82,457.33 C375.70,462.37 369.17,473.13 364.32,481.24 ZM 589.87 685.41 L 584.25 693.50 L 513.68 693.76 L 443.11 694.01 L 440.71 690.76 C439.39,688.97 434.04,681.20 428.83,673.50 C423.62,665.80 417.32,656.58 414.84,653.00 L 412.66 649.87 C387.29,613.39 385.03,610.14 385.87,608.69 C385.98,608.50 386.13,608.35 386.30,608.16 C388.58,605.53 404.19,577.66 434.27,522.50 C447.01,499.13 459.11,477.31 477.81,444.00 C484.14,432.73 494.62,414.06 501.09,402.52 C507.56,390.99 513.29,381.40 513.82,381.23 C514.36,381.05 516.13,383.29 517.76,386.20 C519.40,389.12 526.27,401.40 533.03,413.50 C539.79,425.60 549.25,442.48 554.04,451.00 C567.61,475.15 591.22,517.66 595.98,526.50 C598.35,530.90 602.43,538.33 605.05,543.00 C616.27,563.02 635.98,599.00 638.95,604.89 L 642.17 611.29 L 637.34 618.09 C628.94,629.89 595.74,676.98 589.87,685.41 ZM 523.74 965.32 C518.38,973.40 513.83,980.00 513.65,980.00 C512.60,980.00 509.95,976.16 465.83,910.50 C358.36,750.58 333.00,712.40 333.00,710.57 C333.00,710.25 355.88,710.00 383.85,710.00 C431.02,710.00 434.80,710.13 436.22,711.75 C437.06,712.71 448.08,728.80 460.71,747.50 C493.21,795.61 495.61,799.12 504.89,812.28 L 513.19 824.07 L 518.91 815.78 C532.42,796.19 560.76,754.91 574.01,735.50 C581.89,723.95 589.25,713.49 590.35,712.25 L 592.35 710.00 L 643.17 710.00 C671.13,710.00 694.00,710.39 694.00,710.87 C694.00,711.34 693.16,712.80 692.13,714.12 C691.10,715.43 676.40,737.20 659.46,762.50 C584.08,875.10 555.29,918.03 550.33,925.24 C547.40,929.50 545.00,933.30 545.00,933.68 C545.00,934.06 544.14,935.30 543.08,936.44 C542.02,937.57 539.43,941.23 537.33,944.57 C535.22,947.91 529.11,957.25 523.74,965.32 ZM 918.52 692.97 C917.51,694.60 699.86,694.39 697.84,692.75 C696.14,691.38 658.00,621.80 658.00,620.08 C658.00,619.50 663.48,611.26 670.17,601.76 C684.03,582.11 709.41,545.74 722.70,526.50 L 731.67 513.50 L 805.37 513.50 L 825.63 545.50 C836.77,563.10 846.51,578.40 847.28,579.50 C848.05,580.60 854.68,590.95 862.02,602.50 C869.36,614.05 878.58,628.45 882.50,634.50 C904.35,668.15 919.08,692.06 918.52,692.97 ZM 330.61 690.75 L 328.95 694.00 L 221.53 694.00 C162.36,694.00 113.88,693.61 113.58,693.14 C113.29,692.66 115.01,689.17 117.41,685.39 C136.87,654.65 192.24,566.92 210.44,538.00 C215.46,530.03 221.12,521.13 223.03,518.24 L 226.48 512.97 L 261.37 513.24 L 296.25 513.50 L 319.87 547.59 C344.22,582.71 349.12,589.67 357.25,600.68 C359.86,604.21 362.00,607.33 362.00,607.60 C362.00,607.86 363.84,610.57 366.08,613.61 C368.73,617.19 369.94,619.73 369.53,620.82 C368.85,622.62 358.97,640.41 342.48,669.50 C336.86,679.40 331.52,688.96 330.61,690.75 ZM 434.55 488.00 L 430.42 495.50 L 399.71 495.76 C382.82,495.91 369.00,495.66 369.00,495.22 C369.00,494.43 378.94,477.93 399.85,444.00 C405.45,434.92 433.31,388.69 461.76,341.26 C490.22,293.83 513.91,255.15 514.42,255.32 C514.93,255.48 528.31,276.74 544.17,302.56 C560.03,328.38 575.40,353.33 578.35,358.00 C581.29,362.67 593.73,382.92 606.00,403.00 C618.27,423.08 629.14,440.43 630.15,441.56 C631.17,442.70 632.00,443.95 632.00,444.35 C632.00,445.37 638.07,455.81 650.87,476.78 C658.31,488.97 661.60,495.22 660.75,495.54 C660.05,495.81 645.55,495.91 628.53,495.76 L 597.59 495.50 L 588.00 478.00 C579.97,463.35 533.77,380.33 518.85,353.75 C516.46,349.49 514.25,346.00 513.94,346.00 C513.64,346.00 511.42,349.49 509.02,353.75 C491.55,384.75 468.40,426.49 434.55,488.00 ZM 541.91 752.03 C526.50,774.29 513.55,792.62 513.13,792.77 C511.59,793.32 456.59,712.47 457.50,710.99 C458.24,709.81 566.85,709.62 568.71,710.80 C569.55,711.33 561.25,724.10 541.91,752.03 ZM 378.47 597.09 C377.58,599.89 376.68,599.48 373.34,594.75 C371.69,592.41 361.13,577.45 349.87,561.50 C338.61,545.55 326.36,528.11 322.65,522.75 L 315.90 513.00 L 425.13 513.00 L 418.92 524.75 C413.55,534.89 407.64,545.86 390.24,578.00 C388.30,581.58 386.05,585.28 385.23,586.22 C383.84,587.83 383.54,587.69 380.87,584.34 C379.29,582.35 378.00,580.42 378.00,580.05 C378.00,579.68 377.17,578.48 376.15,577.39 C375.13,576.30 374.12,574.92 373.90,574.32 C373.10,572.15 345.48,531.05 344.81,531.02 C344.42,531.01 342.95,532.01 341.53,533.25 L 338.95 535.50 L 347.73 548.31 C352.55,555.35 356.95,561.88 357.50,562.81 C358.05,563.74 359.92,566.53 361.65,569.00 C372.94,585.13 379.04,595.31 378.47,597.09 ZM 666.46 577.78 C651.64,598.37 650.25,600.08 649.62,598.44 C648.46,595.43 649.00,593.88 653.49,587.47 C664.72,571.40 689.00,534.97 689.00,534.19 C689.00,533.34 684.68,531.00 683.13,531.00 C682.50,531.00 665.36,555.44 661.50,561.83 C660.95,562.75 659.26,565.13 657.75,567.14 C656.24,569.15 655.00,571.11 655.00,571.50 C655.00,571.89 653.65,573.92 652.00,576.00 C650.35,578.08 649.00,580.19 649.00,580.68 C649.00,581.17 647.75,583.07 646.22,584.90 L 643.44 588.23 L 636.81 575.87 C633.16,569.07 624.09,552.25 616.66,538.50 L 603.14 513.50 L 656.73 513.24 C686.20,513.10 710.51,513.17 710.74,513.40 C711.09,513.76 701.69,527.63 689.32,545.00 C687.55,547.47 683.03,554.00 679.27,559.50 C675.50,565.00 669.74,573.23 666.46,577.78 ZM 421.37 693.20 C420.63,694.40 345.25,694.21 344.50,693.01 C343.93,692.08 374.86,635.04 377.49,632.18 C378.81,630.75 384.12,637.43 399.20,659.50 C403.33,665.55 410.13,675.43 414.29,681.45 C418.46,687.48 421.64,692.77 421.37,693.20 ZM 682.20 691.71 C682.48,693.40 680.39,693.51 644.43,693.76 C623.49,693.91 606.09,693.76 605.77,693.43 C605.15,692.82 606.75,690.44 626.10,663.15 C641.43,641.54 649.11,631.00 649.52,631.00 C649.97,631.00 660.00,648.58 660.00,649.36 C660.00,649.70 664.93,658.96 670.95,669.95 C676.97,680.93 682.03,690.72 682.20,691.71 Z" fill="rgb(19,19,18)"/>
<path d="M 523.74 965.32 C529.11,957.25 535.22,947.91 537.33,944.57 C539.43,941.23 542.02,937.57 543.08,936.44 C544.14,935.30 545.00,934.06 545.00,933.68 C545.00,933.30 547.40,929.50 550.33,925.24 C555.29,918.03 584.08,875.10 659.46,762.50 C676.40,737.20 691.10,715.43 692.13,714.12 C693.16,712.80 694.00,711.34 694.00,710.87 C694.00,710.39 671.13,710.00 643.17,710.00 L 609.27 710.00 C613.13,709.86 617.42,709.74 621.95,709.64 C639.45,709.27 651.80,708.60 652.40,708.00 C652.95,707.45 654.23,707.00 655.24,707.00 C656.76,707.00 656.89,706.66 656.00,705.00 C655.22,703.54 655.24,703.00 656.09,703.00 C656.94,703.00 656.92,702.61 656.03,701.54 C653.92,698.99 659.15,695.17 665.34,694.73 C668.18,694.53 656.06,694.29 638.42,694.18 C622.54,694.09 609.04,693.81 606.27,693.52 C609.29,693.78 625.40,693.89 644.43,693.76 C680.39,693.51 682.48,693.40 682.20,691.71 C682.03,690.72 676.97,680.93 670.95,669.95 C664.93,658.96 660.00,649.70 660.00,649.36 C660.00,648.58 649.97,631.00 649.52,631.00 C649.16,631.00 643.25,639.06 631.51,655.54 C635.62,649.76 639.33,644.54 641.67,641.27 C643.73,638.39 645.43,634.84 645.46,633.38 C645.51,629.89 648.62,627.83 650.34,630.14 C652.15,632.57 655.00,630.15 655.00,626.20 C655.00,624.50 655.48,622.82 656.06,622.46 C657.07,621.84 659.03,617.84 659.56,615.31 C659.69,614.66 658.46,613.66 656.81,613.08 C653.29,611.86 653.53,609.63 657.22,609.19 C660.25,608.83 662.32,606.68 663.75,602.42 C664.74,599.45 664.62,599.25 660.42,596.95 L 656.06 594.57 L 653.13 597.38 C650.56,599.84 650.23,600.10 649.71,598.65 C650.41,599.87 652.36,597.37 666.46,577.78 C669.74,573.23 675.50,565.00 679.27,559.50 L 679.40 559.30 C679.23,559.59 679.05,559.91 678.86,560.26 C678.05,561.78 678.30,562.69 680.06,564.57 C682.04,566.67 682.11,567.02 680.66,567.58 C679.75,567.93 679.25,568.59 679.54,569.06 C679.83,569.53 678.82,569.27 677.30,568.48 C674.70,567.13 674.41,567.20 672.28,569.77 C670.91,571.42 670.21,573.33 670.49,574.61 C670.79,575.91 670.21,577.41 668.98,578.51 C667.89,579.50 667.00,579.95 667.00,579.50 C667.00,578.17 663.10,582.12 662.48,584.07 C662.15,585.10 662.91,587.53 664.24,589.69 C665.53,591.79 666.51,594.50 666.43,595.72 C666.34,596.95 666.66,597.71 667.14,597.41 C667.61,597.12 668.00,597.36 668.00,597.94 C668.00,599.97 670.87,598.98 673.98,595.86 C676.04,593.80 676.78,592.38 676.14,591.74 C675.19,590.79 675.27,589.97 676.65,586.25 C677.45,584.11 677.65,583.12 677.85,580.34 C677.97,578.65 678.84,578.03 681.89,577.52 C685.35,576.93 685.97,576.38 687.46,572.48 C690.17,565.36 689.82,562.33 685.90,559.05 C683.09,556.69 681.67,556.32 680.16,558.19 C683.72,553.00 687.69,547.28 689.32,545.00 C701.69,527.63 711.09,513.76 710.74,513.40 C710.51,513.17 686.20,513.10 656.73,513.24 L 603.74 513.50 C603.64,513.22 603.61,513.06 603.64,513.02 C603.93,512.74 616.13,512.28 630.77,512.00 L 657.37 511.50 L 659.43 507.87 C663.13,501.36 667.00,496.00 668.00,496.00 C668.54,496.00 669.55,496.90 670.23,498.00 C671.69,500.34 674.82,500.64 675.63,498.53 C675.93,497.75 675.17,495.69 674.03,493.59 L 675.50 495.97 L 734.25 495.98 C766.56,495.99 793.00,495.63 793.00,495.17 C793.00,494.33 782.26,477.32 758.94,441.24 C752.10,430.65 742.90,416.35 738.50,409.47 C726.16,390.17 664.43,294.81 642.80,261.63 C636.03,251.26 630.32,242.28 630.10,241.69 C629.87,241.05 626.63,235.87 620.99,227.10 C622.15,228.89 623.30,230.67 624.37,232.31 L 632.03 244.13 L 634.96 241.81 C637.31,239.96 637.94,238.61 638.15,235.00 L 638.16 234.90 C638.40,230.74 638.55,228.19 638.08,225.76 C637.64,223.52 636.67,221.39 634.76,218.20 C640.54,227.11 648.46,239.38 672.43,276.58 C672.40,276.53 672.36,276.48 672.32,276.43 C671.12,274.78 670.79,274.72 669.98,276.00 C669.46,276.83 669.02,278.09 669.02,278.81 C669.01,279.59 668.49,279.81 667.75,279.37 C666.75,278.77 666.75,278.93 667.74,280.15 C668.42,280.99 668.75,281.92 668.46,282.21 C668.17,282.50 669.03,282.53 670.37,282.27 C673.15,281.74 674.11,279.35 672.64,276.91 C676.87,283.46 681.59,290.79 686.88,299.00 C702.65,323.48 720.27,350.81 726.03,359.74 C784.03,449.70 793.95,465.15 813.48,496.00 C822.71,510.58 832.74,526.31 835.78,530.97 C838.82,535.63 846.11,547.11 851.98,556.47 C857.86,565.84 873.00,589.70 885.63,609.50 C915.92,656.96 946.71,706.08 947.54,708.25 C948.17,709.90 941.88,710.01 830.86,710.25 L 713.50 710.50 L 685.25 753.00 C606.27,871.81 526.90,990.69 515.49,1007.30 C517.56,1004.29 521.08,999.06 525.02,993.14 C534.06,979.58 536.33,975.45 536.63,972.03 C537.08,967.02 537.59,966.00 539.64,966.00 C540.47,966.00 543.12,963.89 545.52,961.32 C549.34,957.22 549.73,956.38 548.71,954.57 C547.07,951.67 547.04,949.20 548.64,948.59 C549.39,948.30 550.00,947.52 550.00,946.86 C550.00,944.82 553.19,942.00 555.50,942.00 C556.71,942.00 558.73,941.10 560.00,940.00 C561.27,938.90 561.88,938.00 561.35,938.00 C560.83,938.00 559.83,938.56 559.14,939.25 C558.13,940.25 557.98,940.20 558.35,939.00 C558.61,938.17 559.08,936.04 559.39,934.25 L 559.95 931.00 L 553.93 931.00 C548.68,931.00 547.59,931.34 545.42,933.68 C543.92,935.30 543.18,936.99 543.56,937.93 C543.90,938.80 544.30,940.44 544.44,941.58 C544.64,943.27 544.25,943.58 542.34,943.21 C539.41,942.65 537.79,943.97 534.48,949.62 C531.56,954.60 530.60,958.00 532.12,958.00 C532.67,958.00 532.84,958.45 532.50,959.00 C532.16,959.55 531.09,960.00 530.12,960.00 C528.25,960.00 526.30,961.80 522.05,967.86 C522.60,967.04 523.17,966.19 523.74,965.32 ZM 364.32 481.24 C369.17,473.13 375.70,462.37 378.82,457.33 C390.39,438.66 398.19,425.97 408.05,409.65 C401.72,420.19 397.15,427.77 395.16,431.00 C388.25,442.24 385.60,447.46 385.50,450.00 C385.41,452.74 384.80,453.78 382.70,454.80 C381.22,455.52 379.52,457.03 378.91,458.17 C378.23,459.44 378.20,460.00 378.82,459.61 C379.77,459.02 380.60,459.66 383.76,463.43 C386.29,466.45 388.83,462.76 386.65,459.24 C386.09,458.34 387.72,456.10 390.44,454.00 C391.79,452.96 392.14,452.91 391.59,453.82 C390.93,454.92 391.15,454.92 392.88,453.85 C393.68,453.34 394.37,452.72 394.85,452.12 C379.62,476.89 371.31,490.65 369.42,494.27 C369.81,492.27 366.95,489.31 363.81,488.60 C361.74,488.13 360.76,488.50 359.57,490.20 C358.13,492.26 358.19,492.60 360.40,494.96 C363.19,497.95 365.88,503.00 365.76,505.05 C365.72,505.85 365.76,507.74 365.84,509.25 L 366.00 512.00 L 385.25 512.12 C395.84,512.19 409.09,512.53 414.70,512.87 L 416.78 513.00 L 315.90 513.00 L 322.65 522.75 C325.11,526.31 331.35,535.21 338.56,545.46 C337.86,544.51 337.07,543.43 336.55,542.72 C334.07,539.27 330.16,539.82 330.99,543.50 C331.11,544.05 331.41,545.85 331.65,547.50 C331.90,549.15 332.28,551.06 332.52,551.75 C333.18,553.71 335.87,553.22 338.41,550.68 C340.05,549.04 340.45,548.42 339.93,547.40 C343.17,552.00 346.56,556.81 349.87,561.50 C355.93,570.09 361.79,578.39 366.17,584.58 C362.08,579.21 359.73,578.29 356.55,580.37 C355.17,581.28 353.24,583.26 352.29,584.76 C351.33,586.27 350.22,587.74 349.83,588.02 C349.43,588.31 350.05,590.03 351.20,591.84 C353.09,594.84 353.63,595.09 357.07,594.61 C361.54,593.98 362.30,595.12 360.46,599.65 C359.31,602.51 359.42,603.15 361.64,606.41 C363.69,609.43 364.40,609.86 365.98,609.01 C368.27,607.78 369.08,607.77 370.90,608.92 C372.05,609.65 371.92,610.28 370.14,612.54 L 367.99 615.28 L 370.41 619.61 C371.74,622.00 372.61,624.79 372.33,625.83 C371.95,627.30 372.76,628.09 375.97,629.37 C378.56,630.41 380.74,632.18 381.80,634.11 C382.74,635.81 384.88,639.06 386.56,641.35 C387.82,643.05 391.05,647.67 394.56,652.75 C383.00,636.06 378.66,630.91 377.49,632.18 C374.86,635.04 343.93,692.08 344.50,693.01 C345.03,693.86 383.23,694.20 405.58,693.90 C400.00,694.00 393.32,694.07 386.19,694.09 L 351.50 694.17 L 358.00 696.34 C363.17,698.06 364.57,698.96 364.82,700.75 C365.00,701.99 364.71,703.00 364.18,703.00 C363.65,703.00 363.28,703.79 363.36,704.75 C363.69,708.91 365.63,709.17 401.04,709.75 C408.64,709.87 414.60,709.98 419.27,710.11 C411.63,710.02 400.41,710.00 383.85,710.00 C355.88,710.00 333.00,710.25 333.00,710.57 C333.00,712.25 354.42,744.63 441.31,874.00 C441.17,874.01 439.95,874.45 438.57,874.98 C436.59,875.73 436.00,876.65 436.00,878.98 C436.00,880.64 435.55,882.00 435.00,882.00 C434.45,882.00 434.00,882.46 434.00,883.02 C434.00,883.59 435.12,883.31 436.50,882.41 C437.88,881.51 439.00,881.06 439.00,881.42 C439.00,881.78 439.56,881.55 440.25,880.91 C441.07,880.15 441.85,875.79 441.59,874.41 C449.16,885.69 457.23,897.71 465.83,910.50 C470.67,917.70 475.01,924.16 478.91,929.96 L 467.49 913.00 C457.67,898.42 449.16,886.17 448.57,885.77 C447.05,884.73 444.97,890.07 446.08,892.15 C446.76,893.41 446.43,893.93 444.65,894.37 C443.37,894.69 442.32,895.53 442.29,896.23 C442.27,896.93 442.14,897.95 442.01,898.50 C441.48,900.67 442.05,903.09 442.97,902.52 C443.50,902.19 444.22,903.02 444.56,904.36 C444.89,905.71 446.26,907.83 447.58,909.08 C448.91,910.33 450.00,912.16 450.00,913.16 C450.00,914.05 461.61,932.22 476.68,954.96 C463.39,935.07 452.00,918.24 449.82,915.27 C447.24,911.77 415.32,864.16 378.87,809.45 L 312.61 710.00 L 197.31 710.00 C133.89,710.00 82.00,709.77 82.00,709.49 C82.00,709.21 94.69,689.07 110.19,664.74 C125.70,640.41 144.74,610.38 152.52,598.00 C160.29,585.62 175.57,561.33 186.49,544.00 C197.40,526.67 213.53,501.02 222.33,487.00 C237.16,463.36 256.88,432.31 264.54,420.50 C267.73,415.59 313.10,344.31 339.98,302.00 C347.49,290.17 357.65,274.31 362.57,266.75 C367.48,259.19 374.20,248.77 377.50,243.60 C380.80,238.43 386.11,230.21 389.30,225.35 C392.48,220.48 398.06,211.77 401.68,206.00 C405.31,200.23 410.34,192.35 412.86,188.50 C415.38,184.65 418.84,179.25 420.55,176.50 C418.84,179.25 415.39,184.65 412.88,188.50 C410.37,192.35 406.04,199.10 403.27,203.50 C400.50,207.90 394.81,216.88 390.64,223.46 C383.66,234.46 383.16,235.60 384.44,237.55 C385.40,239.02 385.52,240.09 384.82,241.08 C384.00,242.24 383.91,242.20 384.33,240.86 C384.73,239.60 383.91,239.83 380.85,241.84 C378.29,243.51 375.61,246.66 373.42,250.58 C369.57,257.45 369.37,258.51 371.50,260.64 C373.40,262.54 373.39,263.47 371.43,265.43 C370.45,266.41 368.98,266.78 367.51,266.41 C365.89,266.01 364.51,266.49 363.02,267.98 L 360.88 270.12 L 362.90 273.56 C364.02,275.45 365.08,278.10 365.26,279.44 C365.44,280.79 366.42,282.81 367.45,283.94 C368.47,285.07 369.58,285.99 369.90,285.98 C370.20,285.97 371.78,283.87 373.55,281.17 C365.58,293.64 356.48,307.83 346.86,322.75 C343.76,327.56 331.66,346.58 319.96,365.00 C308.27,383.42 296.83,401.42 294.55,405.00 C292.26,408.58 285.02,419.94 278.45,430.26 C271.88,440.58 261.53,456.78 255.45,466.26 C244.43,483.46 238.00,494.18 238.00,495.37 C238.00,495.72 264.44,496.00 296.75,495.99 L 355.50 495.99 ZM 918.52 692.97 C919.08,692.06 904.35,668.15 882.50,634.50 C878.58,628.45 869.36,614.05 862.02,602.50 C854.68,590.95 848.05,580.60 847.28,579.50 C846.51,578.40 836.77,563.10 825.63,545.50 L 805.37 513.50 L 731.67 513.50 L 722.70 526.50 C709.41,545.74 684.03,582.11 670.17,601.76 C663.48,611.26 658.00,619.50 658.00,620.08 C658.00,621.80 696.14,691.38 697.84,692.75 C699.86,694.39 917.51,694.60 918.52,692.97 ZM 330.61 690.75 C331.52,688.96 336.86,679.40 342.48,669.50 C358.97,640.41 368.85,622.62 369.53,620.82 C369.94,619.73 368.73,617.19 366.08,613.61 C363.84,610.57 362.00,607.86 362.00,607.60 C362.00,607.33 359.86,604.21 357.25,600.68 C349.12,589.67 344.22,582.71 319.87,547.59 L 296.25 513.50 L 261.37 513.24 L 226.48 512.97 L 223.03 518.24 C221.12,521.13 215.46,530.03 210.44,538.00 C192.24,566.92 136.87,654.65 117.41,685.39 C115.01,689.17 113.29,692.66 113.58,693.14 C113.88,693.61 162.36,694.00 221.53,694.00 L 328.95 694.00 ZM 672.43 491.00 C671.65,489.88 670.84,488.93 670.12,488.39 C668.05,486.81 665.02,487.87 663.77,490.61 C663.19,491.89 662.37,492.73 661.97,492.48 C661.56,492.23 661.29,492.80 661.36,493.76 C661.39,494.13 661.30,494.43 660.77,494.66 C660.14,492.52 656.84,486.56 650.87,476.78 C639.90,458.81 633.88,448.58 632.38,445.37 C632.77,446.06 633.16,446.77 633.54,447.47 C634.96,450.15 636.91,453.34 637.87,454.56 L 639.60 456.77 L 643.21 452.79 C645.02,450.80 645.91,449.80 646.09,449.07 C648.87,453.12 654.46,461.86 660.55,471.73 ZM 660.74 566.31 C663.94,567.14 666.61,566.94 668.07,566.11 C662.68,574.12 657.32,581.98 653.49,587.47 C649.50,593.17 648.63,595.03 649.30,597.49 C648.91,596.63 648.35,596.00 647.93,596.00 C646.39,596.00 646.88,591.79 648.65,589.83 C649.57,588.82 651.08,588.00 652.02,588.00 C653.33,588.00 653.61,587.36 653.25,585.25 C652.98,583.74 652.08,581.96 651.25,581.29 C650.25,580.50 649.57,580.63 648.12,582.38 C648.66,581.57 649.00,580.94 649.00,580.68 C649.00,580.19 650.35,578.08 652.00,576.00 C653.65,573.92 655.00,571.89 655.00,571.50 C655.00,571.11 656.24,569.15 657.75,567.14 C659.26,565.13 660.95,562.75 661.50,561.83 C665.36,555.44 682.50,531.00 683.13,531.00 C684.68,531.00 689.00,533.34 689.00,534.19 C689.00,534.57 683.33,543.27 676.20,553.97 C676.38,553.23 676.07,552.44 675.33,550.95 C673.12,546.53 672.33,546.56 669.00,551.16 L 665.93 555.39 L 668.22 556.66 C671.42,558.44 672.64,558.30 674.85,555.93 C674.91,555.87 674.97,555.81 675.02,555.75 C673.17,558.52 671.23,561.41 669.29,564.30 C669.28,563.55 668.80,562.69 667.76,561.79 C664.89,559.30 663.46,559.54 661.05,562.92 C659.12,565.64 659.10,565.88 660.74,566.31 ZM 366.08 575.42 C364.71,573.40 363.23,571.26 361.65,569.00 C359.92,566.53 358.05,563.74 357.50,562.81 C356.95,561.88 352.55,555.35 347.73,548.31 L 338.95 535.50 L 341.53 533.25 C342.95,532.01 344.42,531.01 344.81,531.02 C345.37,531.04 364.94,560.03 371.67,570.60 C370.30,569.13 368.72,569.28 366.95,571.05 C365.62,572.38 365.30,573.64 366.08,575.42 ZM 334.33 510.50 C334.33,511.67 335.70,512.00 340.61,512.00 C344.06,512.00 347.16,511.55 347.50,511.00 C347.84,510.45 349.02,510.00 350.12,510.00 C351.28,510.00 351.84,509.55 351.46,508.94 C351.10,508.35 351.53,507.07 352.41,506.10 C353.30,505.12 354.13,502.56 354.26,500.41 C354.49,496.60 354.41,496.49 350.95,496.20 C348.00,495.95 347.16,496.34 346.03,498.45 C345.28,499.85 344.26,501.00 343.76,501.00 C342.45,501.00 340.66,503.10 339.26,506.25 C338.56,507.82 337.25,509.00 336.19,509.00 C335.17,509.00 334.33,509.67 334.33,510.50 ZM 378.47 597.09 C378.91,595.72 375.39,589.36 368.59,579.14 C369.72,580.36 370.69,580.17 372.33,578.53 C373.63,577.23 373.95,577.23 375.02,578.53 C375.70,579.34 376.75,579.99 377.37,579.97 C377.99,579.95 377.70,579.48 376.73,578.91 C375.75,578.34 375.22,577.45 375.54,576.94 C375.57,576.89 375.60,576.84 375.62,576.79 C375.79,577.00 375.97,577.20 376.15,577.39 C377.17,578.48 378.00,579.68 378.00,580.05 C378.00,580.42 379.29,582.35 380.87,584.34 C383.54,587.69 383.84,587.83 385.23,586.22 C386.05,585.28 388.30,581.58 390.24,578.00 C395.42,568.43 399.58,560.74 403.01,554.39 C386.61,585.01 384.39,588.95 383.30,588.66 C383.05,588.59 382.86,588.30 382.57,588.06 C381.18,586.91 377.00,587.07 377.00,588.27 C377.00,588.74 376.44,588.78 375.75,588.37 C374.43,587.58 375.88,589.76 379.23,593.59 C382.90,597.80 377.55,602.12 372.06,599.38 C368.71,597.71 368.19,595.92 370.49,594.01 C371.55,593.13 371.47,592.30 369.36,589.11 C371.41,592.01 372.82,594.01 373.34,594.75 C376.68,599.48 377.58,599.89 378.47,597.09 ZM 679.50 511.00 C679.11,511.62 681.15,512.00 684.93,512.00 L 690.97 512.00 L 690.55 507.50 C690.31,504.98 690.55,503.00 691.10,503.00 C691.63,503.00 691.96,501.42 691.83,499.50 C691.65,496.89 691.14,496.00 689.80,496.00 C688.81,496.00 688.05,496.34 688.12,496.75 C688.47,498.98 687.60,500.18 683.63,502.91 C679.60,505.68 676.88,510.00 679.15,510.00 C679.68,510.00 679.84,510.45 679.50,511.00 ZM 375.05 278.83 C377.48,274.93 377.52,274.20 376.35,272.42 C375.22,270.68 375.17,269.73 376.11,267.65 C376.76,266.23 377.67,265.29 378.13,265.58 C379.31,266.31 382.78,264.27 383.90,262.18 C384.56,260.95 384.37,259.41 383.29,257.18 C381.65,253.78 382.20,251.80 384.22,253.82 C385.97,255.57 387.70,255.25 388.27,253.07 C388.65,251.62 388.38,251.29 387.14,251.74 C385.79,252.24 385.83,251.96 387.40,250.17 C388.45,248.98 390.14,248.00 391.15,248.00 C392.17,248.00 393.00,247.56 393.00,247.03 C393.00,246.50 393.56,246.28 394.25,246.54 C394.67,246.70 396.07,245.20 397.64,243.19 C392.75,251.02 384.81,263.54 375.05,278.83 ZM 355.05 558.84 C358.68,564.28 362.00,566.77 362.00,564.07 C362.00,563.55 362.89,562.85 363.97,562.51 C365.79,561.93 365.63,561.42 361.72,555.47 C359.40,551.95 356.99,548.86 356.36,548.60 C355.73,548.35 354.25,549.17 353.08,550.42 L 350.94 552.69 ZM 334.66 567.56 C335.04,568.55 336.02,568.79 337.85,568.34 C339.31,567.98 340.73,567.42 341.00,567.10 C341.27,566.77 343.04,566.50 344.93,566.50 C347.81,566.50 348.47,566.07 349.08,563.79 C349.66,561.64 349.28,560.55 347.26,558.53 C344.40,555.67 344.34,555.69 337.85,562.31 C335.69,564.52 334.34,566.73 334.66,567.56 ZM 562.79 921.08 C572.91,922.49 573.11,922.16 566.05,915.74 C563.33,913.26 561.19,911.05 561.30,910.83 C561.41,910.60 560.71,911.28 559.74,912.34 C557.75,914.50 556.42,918.75 557.42,919.76 C557.79,920.12 560.20,920.71 562.79,921.08 ZM 658.60 646.28 L 660.31 649.87 L 662.35 647.29 C663.47,645.86 664.47,643.01 664.57,640.96 C664.66,638.90 665.00,636.81 665.31,636.31 C666.25,634.79 664.38,632.78 662.38,633.16 C660.88,633.46 660.57,634.26 660.83,637.26 C661.01,639.32 660.78,641.01 660.33,641.02 C657.47,641.07 656.92,642.76 658.60,646.28 ZM 644.25 247.34 C646.80,248.37 648.20,247.95 648.71,246.01 C648.99,244.92 649.59,244.24 650.03,244.52 C651.77,245.59 650.20,241.58 647.98,239.27 C645.74,236.95 645.54,236.91 644.30,238.60 C642.64,240.87 642.61,246.67 644.25,247.34 ZM 699.44 548.73 C701.49,549.85 704.00,549.39 704.00,547.89 C704.00,547.40 703.64,547.00 703.20,547.00 C702.75,547.00 700.65,545.41 698.52,543.46 C694.46,539.74 692.82,539.60 691.08,542.85 C690.18,544.54 690.45,544.96 693.01,545.86 C694.66,546.43 696.01,546.58 696.02,546.20 C696.02,545.81 696.36,545.99 696.77,546.59 C697.17,547.18 698.37,548.15 699.44,548.73 ZM 366.66 638.39 C368.13,639.86 369.82,640.88 370.41,640.67 C372.07,640.08 371.40,633.80 369.56,632.78 C368.68,632.28 368.19,631.49 368.48,631.03 C369.10,630.02 367.04,630.22 365.25,631.34 C363.22,632.60 363.81,635.54 366.66,638.39 ZM 357.23 302.52 C356.83,302.97 357.69,302.47 359.14,301.42 C360.76,300.24 361.37,299.24 360.71,298.83 C359.94,298.35 359.94,297.77 360.70,296.83 C362.51,294.60 361.75,290.54 359.47,290.21 C357.93,289.99 357.39,290.53 357.23,292.46 C357.12,293.86 357.49,295.00 358.07,295.00 C358.65,295.00 358.84,295.46 358.49,296.02 C358.14,296.58 357.49,296.80 357.04,296.52 C355.45,295.54 354.86,299.43 356.43,300.57 C357.28,301.19 357.64,302.07 357.23,302.52 ZM 649.93 474.87 C651.34,477.51 652.62,477.58 653.96,475.08 C654.52,474.02 655.66,472.48 656.49,471.65 C657.84,470.31 657.82,469.96 656.35,468.49 C654.81,466.96 654.49,467.05 651.75,469.79 C649.22,472.32 648.96,473.05 649.93,474.87 ZM 572.83 902.13 C575.60,903.74 578.00,902.99 578.00,900.50 C578.00,898.62 575.33,896.66 574.53,897.95 C574.11,898.63 573.26,898.68 572.15,898.08 C569.16,896.48 569.82,900.38 572.83,902.13 ZM 655.27 576.23 C659.08,579.54 661.68,575.99 658.32,572.06 L 656.53 569.97 L 654.85 572.19 C653.26,574.30 653.29,574.51 655.27,576.23 ZM 359.14 651.51 C361.76,654.27 362.59,654.65 364.08,653.72 C365.06,653.10 365.64,652.23 365.37,651.78 C365.09,651.33 364.44,651.23 363.93,651.54 C363.42,651.86 363.00,651.66 363.00,651.09 C363.00,650.53 362.25,650.35 361.34,650.70 C360.35,651.08 359.92,650.93 360.28,650.35 C360.82,649.48 357.79,646.00 356.49,646.00 C355.12,646.00 356.34,648.54 359.14,651.51 ZM 395.51 451.05 C395.75,450.44 395.62,450.00 394.97,450.00 C393.19,450.00 393.99,448.54 398.31,443.85 C401.14,440.78 402.88,438.74 410.68,426.17 C405.39,434.92 401.57,441.21 399.85,444.00 C398.35,446.44 396.90,448.79 395.51,451.05 ZM 377.04 471.55 C378.42,473.21 379.88,473.36 381.92,472.07 C383.03,471.37 382.59,470.72 379.92,469.09 C376.99,467.30 376.45,467.22 376.17,468.55 C375.98,469.40 376.38,470.75 377.04,471.55 ZM 641.08 440.32 C641.01,440.24 640.94,440.17 640.87,440.09 C639.18,438.28 638.56,438.09 637.88,439.15 C637.23,440.19 637.03,440.09 637.02,438.72 C637.01,437.74 636.31,436.67 635.47,436.35 C634.22,435.87 634.17,435.49 635.22,434.19 C636.29,432.87 636.26,432.76 635.00,433.50 C633.76,434.23 633.71,434.12 634.73,432.87 C635.44,431.98 635.34,430.92 633.85,428.17 C634.71,429.58 635.56,430.96 636.36,432.25 C638.20,435.23 639.87,438.10 641.08,440.32 ZM 406.29 573.48 C398.24,588.01 392.63,597.92 389.38,603.36 C390.15,601.83 390.39,600.68 390.05,600.02 C389.15,598.27 389.74,596.00 391.08,596.00 C392.94,596.00 395.10,593.45 406.29,573.48 ZM 348.23 570.55 C348.11,571.95 348.55,572.99 349.26,572.98 C351.51,572.96 352.91,571.47 352.75,569.29 C352.62,567.62 352.22,567.35 350.92,568.04 C350.01,568.53 349.08,568.74 348.85,568.51 C348.62,568.28 348.34,569.20 348.23,570.55 ZM 658.18 263.72 C659.63,265.46 660.31,265.34 661.73,263.06 C662.77,261.40 662.64,261.02 660.85,260.45 C658.35,259.66 656.60,261.81 658.18,263.72 ZM 650.00 271.00 C652.13,272.32 654.93,269.53 653.20,267.80 C652.25,266.85 651.61,266.96 650.24,268.33 C648.72,269.85 648.69,270.19 650.00,271.00 ZM 662.25 290.46 C662.94,291.21 663.88,291.47 664.34,291.02 C665.32,290.08 663.39,286.00 661.96,286.00 C660.59,286.00 660.77,288.83 662.25,290.46 ZM 453.40 901.16 C454.32,901.36 454.64,901.98 454.20,902.70 C453.72,903.46 452.93,903.57 452.00,903.00 C450.27,901.93 451.21,900.69 453.40,901.16 ZM 385.76 608.95 C385.45,610.20 387.29,613.26 398.59,629.60 L 397.67 628.27 L 385.02 610.05 ZM 387.00 237.11 C387.00,238.39 386.42,238.21 384.98,236.48 C383.92,235.20 383.99,235.06 385.36,235.58 C386.26,235.93 387.00,236.62 387.00,237.11 ZM 638.83 579.64 C636.88,576.08 634.31,571.33 631.71,566.50 C626.99,557.70 618.63,542.19 613.12,532.02 C612.11,530.16 611.15,528.35 610.24,526.64 L 616.66 538.50 C624.09,552.25 633.16,569.07 636.81,575.87 ZM 370.99 495.49 C375.22,495.74 385.74,495.87 398.14,495.78 C381.28,495.92 373.90,495.89 370.99,495.49 ZM 627.23 417.32 C625.76,414.95 624.42,412.75 623.57,411.35 C619.74,404.99 608.09,385.88 599.83,372.36 C612.63,393.24 622.01,408.64 625.83,415.00 C626.21,415.65 626.69,416.44 627.23,417.32 ZM 441.68 353.53 C480.93,287.75 494.12,265.63 505.04,247.26 C486.94,277.72 462.81,318.17 441.68,353.53 ZM 646.29 584.82 L 643.78 588.28 L 643.62 588.02 L 646.22 584.90 ZM 614.54 679.49 C610.96,684.59 608.76,687.79 607.44,689.81 C608.08,688.77 608.86,687.57 609.73,686.32 C610.71,684.93 612.40,682.52 614.54,679.49 ZM 436.26 711.81 C436.30,711.84 436.33,711.87 436.36,711.90 C437.12,712.78 448.08,728.80 460.71,747.50 C448.28,729.10 437.41,713.23 436.26,711.81 ZM 373.14 572.95 C373.57,573.66 373.83,574.13 373.90,574.32 C373.99,574.55 374.19,574.90 374.47,575.31 C374.06,574.77 373.59,573.98 373.20,573.09 C373.18,573.04 373.16,572.99 373.14,572.95 ZM 504.28 967.53 C502.29,964.64 500.07,961.37 497.80,958.00 L 495.13 954.03 C498.92,959.65 501.92,964.07 504.28,967.53 ZM 424.87 513.50 L 424.91 513.50 L 421.62 519.65 ZM 610.27 409.97 C608.87,407.70 607.45,405.37 606.00,403.00 C594.21,383.71 582.26,364.26 578.73,358.62 C582.26,364.26 594.21,383.71 606.00,403.00 C607.45,405.37 608.88,407.70 610.27,409.97 ZM 595.05 187.18 C591.57,181.85 587.29,175.30 583.83,170.00 C580.35,164.68 577.08,159.66 574.07,155.01 C577.08,159.66 580.35,164.68 583.83,170.00 C588.09,176.52 591.81,182.21 595.05,187.18 ZM 387.73 606.07 C387.08,607.10 386.61,607.78 386.33,608.12 ZM 529.77 800.00 C525.64,806.01 521.91,811.43 518.91,815.78 L 513.19 824.07 L 518.90 815.78 C521.91,811.42 525.64,806.01 529.77,800.00 Z" fill="rgb(217,137,9)"/>
<path d="M 481.68 962.48 C464.26,936.35 450.00,914.15 450.00,913.16 C450.00,912.16 448.91,910.33 447.58,909.08 C446.26,907.83 444.89,905.71 444.56,904.36 C444.22,903.02 443.50,902.19 442.97,902.52 C442.05,903.09 441.48,900.67 442.01,898.50 C442.14,897.95 442.27,896.93 442.29,896.23 C442.32,895.53 443.37,894.69 444.65,894.37 C446.43,893.93 446.76,893.41 446.08,892.15 C444.97,890.07 447.05,884.73 448.57,885.77 C449.16,886.17 457.67,898.42 467.49,913.00 C477.30,927.58 490.94,947.83 497.80,958.00 C504.65,968.17 511.05,977.33 512.01,978.35 C513.70,980.14 513.95,979.92 518.99,972.35 C525.46,962.65 527.85,960.00 530.12,960.00 C531.09,960.00 532.16,959.55 532.50,959.00 C532.84,958.45 532.67,958.00 532.12,958.00 C530.60,958.00 531.56,954.60 534.48,949.62 C537.79,943.97 539.41,942.65 542.34,943.21 C544.25,943.58 544.64,943.27 544.44,941.58 C544.30,940.44 543.90,938.80 543.56,937.93 C543.18,936.99 543.92,935.30 545.42,933.68 C547.59,931.34 548.68,931.00 553.93,931.00 L 559.95 931.00 L 559.39 934.25 C559.08,936.04 558.61,938.17 558.35,939.00 C557.98,940.20 558.13,940.25 559.14,939.25 C559.83,938.56 560.83,938.00 561.35,938.00 C561.88,938.00 561.27,938.90 560.00,940.00 C558.73,941.10 556.71,942.00 555.50,942.00 C553.19,942.00 550.00,944.82 550.00,946.86 C550.00,947.52 549.39,948.30 548.64,948.59 C547.04,949.20 547.07,951.67 548.71,954.57 C549.73,956.38 549.34,957.22 545.52,961.32 C543.12,963.89 540.47,966.00 539.64,966.00 C537.59,966.00 537.08,967.02 536.63,972.03 C536.33,975.45 534.06,979.58 525.02,993.14 C518.85,1002.41 513.70,1010.00 513.58,1010.00 C513.46,1010.00 499.11,988.62 481.68,962.48 ZM 453.40 901.16 C451.21,900.69 450.27,901.93 452.00,903.00 C452.93,903.57 453.72,903.46 454.20,902.70 C454.64,901.98 454.32,901.36 453.40,901.16 ZM 562.79 921.08 C560.20,920.71 557.79,920.12 557.42,919.76 C556.42,918.75 557.75,914.50 559.74,912.34 C560.71,911.28 561.41,910.60 561.30,910.83 C561.19,911.05 563.33,913.26 566.05,915.74 C573.11,922.16 572.91,922.49 562.79,921.08 ZM 572.83 902.13 C569.82,900.38 569.16,896.48 572.15,898.08 C573.26,898.68 574.11,898.63 574.53,897.95 C575.33,896.66 578.00,898.62 578.00,900.50 C578.00,902.99 575.60,903.74 572.83,902.13 ZM 434.00 883.02 C434.00,882.46 434.45,882.00 435.00,882.00 C435.55,882.00 436.00,880.64 436.00,878.98 C436.00,876.65 436.59,875.73 438.57,874.98 C439.98,874.44 441.21,874.00 441.32,874.00 C442.15,874.00 441.22,880.00 440.25,880.91 C439.56,881.55 439.00,881.78 439.00,881.42 C439.00,881.06 437.88,881.51 436.50,882.41 C435.12,883.31 434.00,883.59 434.00,883.02 ZM 504.89 812.28 C495.61,799.12 493.21,795.61 460.71,747.50 C448.08,728.80 437.12,712.78 436.36,711.90 C435.15,710.52 430.41,710.23 401.04,709.75 C365.63,709.17 363.69,708.91 363.36,704.75 C363.28,703.79 363.65,703.00 364.18,703.00 C364.71,703.00 365.00,701.99 364.82,700.75 C364.57,698.96 363.17,698.06 358.00,696.34 L 351.50 694.17 L 386.19 694.09 C405.27,694.04 421.10,693.64 421.37,693.20 C421.64,692.77 418.45,687.48 414.29,681.45 C410.12,675.43 402.86,664.88 398.16,658.00 C393.46,651.12 388.24,643.63 386.56,641.35 C384.88,639.06 382.74,635.81 381.80,634.11 C380.74,632.18 378.56,630.41 375.97,629.37 C372.76,628.09 371.95,627.30 372.33,625.83 C372.61,624.79 371.74,622.00 370.41,619.61 L 367.99 615.28 L 370.14 612.54 C371.92,610.28 372.05,609.65 370.90,608.92 C369.08,607.77 368.27,607.78 365.98,609.01 C364.40,609.86 363.69,609.43 361.64,606.41 C359.42,603.15 359.31,602.51 360.46,599.65 C362.30,595.12 361.54,593.98 357.07,594.61 C353.63,595.09 353.09,594.84 351.20,591.84 C350.05,590.03 349.43,588.31 349.83,588.02 C350.22,587.74 351.33,586.27 352.29,584.76 C353.24,583.26 355.17,581.28 356.55,580.37 C360.12,578.04 362.64,579.48 367.75,586.76 C371.39,591.95 371.77,592.95 370.49,594.01 C368.19,595.92 368.71,597.71 372.06,599.38 C377.55,602.12 382.90,597.80 379.23,593.59 C375.88,589.76 374.43,587.58 375.75,588.37 C376.44,588.78 377.00,588.74 377.00,588.27 C377.00,587.07 381.18,586.91 382.57,588.06 C384.35,589.53 382.39,592.90 413.13,535.50 L 424.91 513.50 L 414.70 512.87 C409.09,512.53 395.84,512.19 385.25,512.12 L 366.00 512.00 L 365.84 509.25 C365.76,507.74 365.72,505.85 365.76,505.05 C365.88,503.00 363.19,497.95 360.40,494.96 C358.19,492.60 358.13,492.26 359.57,490.20 C360.76,488.50 361.74,488.13 363.81,488.60 C367.11,489.35 370.10,492.58 369.34,494.56 C368.85,495.84 372.86,495.99 399.60,495.76 L 430.42 495.50 L 434.55 488.00 C468.40,426.49 491.55,384.75 509.02,353.75 C511.42,349.49 513.64,346.00 513.94,346.00 C514.25,346.00 516.46,349.49 518.85,353.75 C533.75,380.29 579.97,463.35 588.00,478.00 L 597.59 495.50 L 629.54 495.50 C659.29,495.50 661.49,495.38 661.36,493.76 C661.29,492.80 661.56,492.23 661.97,492.48 C662.37,492.73 663.19,491.89 663.77,490.61 C665.02,487.87 668.05,486.81 670.12,488.39 C672.59,490.26 676.23,496.96 675.63,498.53 C674.82,500.64 671.69,500.34 670.23,498.00 C669.55,496.90 668.54,496.00 668.00,496.00 C667.00,496.00 663.13,501.36 659.43,507.87 L 657.37 511.50 L 630.77 512.00 C616.13,512.28 603.93,512.74 603.64,513.02 C603.35,513.31 607.62,521.86 613.12,532.02 C618.63,542.19 626.99,557.70 631.71,566.50 C636.44,575.30 641.08,583.80 642.04,585.39 L 643.78 588.28 L 646.75 584.18 C649.23,580.76 649.98,580.28 651.25,581.29 C652.08,581.96 652.98,583.74 653.25,585.25 C653.61,587.36 653.33,588.00 652.02,588.00 C651.08,588.00 649.57,588.82 648.65,589.83 C646.88,591.79 646.39,596.00 647.93,596.00 C648.45,596.00 649.16,596.94 649.53,598.09 C650.18,600.13 650.27,600.12 653.13,597.38 L 656.06 594.57 L 660.42 596.95 C664.62,599.25 664.74,599.45 663.75,602.42 C662.32,606.68 660.25,608.83 657.22,609.19 C653.53,609.63 653.29,611.86 656.81,613.08 C658.46,613.66 659.69,614.66 659.56,615.31 C659.03,617.84 657.07,621.84 656.06,622.46 C655.48,622.82 655.00,624.50 655.00,626.20 C655.00,630.15 652.15,632.57 650.34,630.14 C648.62,627.83 645.51,629.89 645.46,633.38 C645.43,634.84 643.73,638.39 641.67,641.27 C634.48,651.33 614.25,679.86 609.73,686.32 C607.23,689.91 605.44,693.10 605.75,693.42 C606.07,693.74 620.77,694.08 638.42,694.18 C656.06,694.29 668.18,694.53 665.34,694.73 C659.15,695.17 653.92,698.99 656.03,701.54 C656.92,702.61 656.94,703.00 656.09,703.00 C655.24,703.00 655.22,703.54 656.00,705.00 C656.89,706.66 656.76,707.00 655.24,707.00 C654.23,707.00 652.95,707.45 652.40,708.00 C651.80,708.60 639.45,709.27 621.95,709.64 C605.40,710.00 591.96,710.70 591.26,711.25 C590.58,711.78 582.74,722.86 573.83,735.86 C558.71,757.93 532.01,796.78 518.90,815.78 L 513.19 824.07 L 504.89 812.28 ZM 541.91 752.03 C561.25,724.10 569.55,711.33 568.71,710.80 C566.85,709.62 458.24,709.81 457.50,710.99 C456.59,712.47 511.59,793.32 513.13,792.77 C513.55,792.62 526.50,774.29 541.91,752.03 ZM 589.87 685.41 C595.74,676.98 628.94,629.89 637.34,618.09 L 642.17 611.29 L 638.95 604.89 C635.98,599.00 616.27,563.02 605.05,543.00 C602.43,538.33 598.35,530.90 595.98,526.50 C591.22,517.66 567.61,475.15 554.04,451.00 C549.25,442.48 539.79,425.60 533.03,413.50 C526.27,401.40 519.40,389.12 517.76,386.20 C516.13,383.29 514.36,381.05 513.82,381.23 C513.29,381.40 507.56,390.99 501.09,402.52 C494.62,414.06 484.14,432.73 477.81,444.00 C458.97,477.57 446.96,499.22 434.27,522.50 C397.56,589.88 393.96,596.00 391.08,596.00 C389.74,596.00 389.15,598.27 390.05,600.02 C390.55,601.00 389.80,603.03 387.92,605.79 L 385.02 610.05 L 397.67 628.27 C404.62,638.30 412.35,649.42 414.84,653.00 C417.32,656.58 423.62,665.80 428.83,673.50 C434.04,681.20 439.39,688.97 440.71,690.76 L 443.11 694.01 L 513.68 693.76 L 584.25 693.50 L 589.87 685.41 ZM 359.14 651.51 C356.34,648.54 355.12,646.00 356.49,646.00 C357.79,646.00 360.82,649.48 360.28,650.35 C359.92,650.93 360.35,651.08 361.34,650.70 C362.25,650.35 363.00,650.53 363.00,651.09 C363.00,651.66 363.42,651.86 363.93,651.54 C364.44,651.23 365.09,651.33 365.37,651.78 C365.64,652.23 365.06,653.10 364.08,653.72 C362.59,654.65 361.76,654.27 359.14,651.51 ZM 658.60 646.28 C656.92,642.76 657.47,641.07 660.33,641.02 C660.78,641.01 661.01,639.32 660.83,637.26 C660.57,634.26 660.88,633.46 662.38,633.16 C664.38,632.78 666.25,634.79 665.31,636.31 C665.00,636.81 664.66,638.90 664.57,640.96 C664.47,643.01 663.47,645.86 662.35,647.29 L 660.31 649.87 L 658.60 646.28 ZM 366.66 638.39 C363.81,635.54 363.22,632.60 365.25,631.34 C367.04,630.22 369.10,630.02 368.48,631.03 C368.19,631.49 368.68,632.28 369.56,632.78 C371.40,633.80 372.07,640.08 370.41,640.67 C369.82,640.88 368.13,639.86 366.66,638.39 ZM 668.00 597.94 C668.00,597.36 667.61,597.12 667.14,597.41 C666.66,597.71 666.34,596.95 666.43,595.72 C666.51,594.50 665.53,591.79 664.24,589.69 C662.91,587.53 662.15,585.10 662.48,584.07 C663.10,582.12 667.00,578.17 667.00,579.50 C667.00,579.95 667.89,579.50 668.98,578.51 C670.21,577.41 670.79,575.91 670.49,574.61 C670.21,573.33 670.91,571.42 672.28,569.77 C674.41,567.20 674.70,567.13 677.30,568.48 C678.82,569.27 679.83,569.53 679.54,569.06 C679.25,568.59 679.75,567.93 680.66,567.58 C682.11,567.02 682.04,566.67 680.06,564.57 C678.30,562.69 678.05,561.78 678.86,560.26 C681.00,556.26 682.31,556.04 685.90,559.05 C689.82,562.33 690.17,565.36 687.46,572.48 C685.97,576.38 685.35,576.93 681.89,577.52 C678.84,578.03 677.97,578.65 677.85,580.34 C677.65,583.12 677.45,584.11 676.65,586.25 C675.27,589.97 675.19,590.79 676.14,591.74 C676.78,592.38 676.04,593.80 673.98,595.86 C670.87,598.98 668.00,599.97 668.00,597.94 ZM 368.26 578.75 C365.24,574.94 364.92,573.08 366.95,571.05 C369.42,568.58 371.51,569.27 373.20,573.09 C373.91,574.69 374.85,576.00 375.30,576.00 C375.75,576.00 375.86,576.42 375.54,576.94 C375.22,577.45 375.75,578.34 376.73,578.91 C377.70,579.48 377.99,579.95 377.37,579.97 C376.75,579.99 375.70,579.34 375.02,578.53 C373.95,577.23 373.63,577.23 372.33,578.53 C370.53,580.33 369.55,580.38 368.26,578.75 ZM 655.27 576.23 C653.29,574.51 653.26,574.30 654.85,572.19 L 656.53 569.97 L 658.32 572.06 C661.68,575.99 659.08,579.54 655.27,576.23 ZM 348.23 570.55 C348.34,569.20 348.62,568.28 348.85,568.51 C349.08,568.74 350.01,568.53 350.92,568.04 C352.22,567.35 352.62,567.62 352.75,569.29 C352.91,571.47 351.51,572.96 349.26,572.98 C348.55,572.99 348.11,571.95 348.23,570.55 ZM 334.66 567.56 C334.34,566.73 335.69,564.52 337.85,562.31 C344.34,555.69 344.40,555.67 347.26,558.53 C349.28,560.55 349.66,561.64 349.08,563.79 C348.47,566.07 347.81,566.50 344.93,566.50 C343.04,566.50 341.27,566.77 341.00,567.10 C340.73,567.42 339.31,567.98 337.85,568.34 C336.02,568.79 335.04,568.55 334.66,567.56 ZM 660.74 566.31 C659.10,565.88 659.12,565.64 661.05,562.92 C663.46,559.54 664.89,559.30 667.76,561.79 C671.76,565.26 667.42,568.05 660.74,566.31 ZM 355.05 558.84 L 350.94 552.69 L 353.08 550.42 C354.25,549.17 355.73,548.35 356.36,548.60 C356.99,548.86 359.40,551.95 361.72,555.47 C365.63,561.42 365.79,561.93 363.97,562.51 C362.89,562.85 362.00,563.55 362.00,564.07 C362.00,566.77 358.68,564.28 355.05,558.84 ZM 668.22 556.66 L 665.93 555.39 L 669.00 551.16 C672.33,546.56 673.12,546.53 675.33,550.95 C676.65,553.60 676.61,554.05 674.85,555.93 C672.64,558.30 671.42,558.44 668.22,556.66 ZM 332.52 551.75 C332.28,551.06 331.90,549.15 331.65,547.50 C331.41,545.85 331.11,544.05 330.99,543.50 C330.16,539.82 334.07,539.27 336.55,542.72 C337.26,543.70 338.49,545.37 339.29,546.43 C340.59,548.16 340.50,548.59 338.41,550.68 C335.87,553.22 333.18,553.71 332.52,551.75 ZM 699.44 548.73 C698.37,548.15 697.17,547.18 696.77,546.59 C696.36,545.99 696.02,545.81 696.02,546.20 C696.01,546.58 694.66,546.43 693.01,545.86 C690.45,544.96 690.18,544.54 691.08,542.85 C692.82,539.60 694.46,539.74 698.52,543.46 C700.65,545.41 702.75,547.00 703.20,547.00 C703.64,547.00 704.00,547.40 704.00,547.89 C704.00,549.39 701.49,549.85 699.44,548.73 ZM 334.33 510.50 C334.33,509.67 335.17,509.00 336.19,509.00 C337.25,509.00 338.56,507.82 339.26,506.25 C340.66,503.10 342.45,501.00 343.76,501.00 C344.26,501.00 345.28,499.85 346.03,498.45 C347.16,496.34 348.00,495.95 350.95,496.20 C354.41,496.49 354.49,496.60 354.26,500.41 C354.13,502.56 353.30,505.12 352.41,506.10 C351.53,507.07 351.10,508.35 351.46,508.94 C351.84,509.55 351.28,510.00 350.12,510.00 C349.02,510.00 347.84,510.45 347.50,511.00 C347.16,511.55 344.06,512.00 340.61,512.00 C335.70,512.00 334.33,511.67 334.33,510.50 ZM 679.50 511.00 C679.84,510.45 679.68,510.00 679.15,510.00 C676.88,510.00 679.60,505.68 683.63,502.91 C687.60,500.18 688.47,498.98 688.12,496.75 C688.05,496.34 688.81,496.00 689.80,496.00 C691.14,496.00 691.65,496.89 691.83,499.50 C691.96,501.42 691.63,503.00 691.10,503.00 C690.55,503.00 690.31,504.98 690.55,507.50 L 690.97 512.00 L 684.93 512.00 C681.15,512.00 679.11,511.62 679.50,511.00 ZM 649.93 474.87 C648.96,473.05 649.22,472.32 651.75,469.79 C654.49,467.05 654.81,466.96 656.35,468.49 C657.82,469.96 657.84,470.31 656.49,471.65 C655.66,472.48 654.52,474.02 653.96,475.08 C652.62,477.58 651.34,477.51 649.93,474.87 ZM 377.04 471.55 C376.38,470.75 375.98,469.40 376.17,468.55 C376.45,467.22 376.99,467.30 379.92,469.09 C382.59,470.72 383.03,471.37 381.92,472.07 C379.88,473.36 378.42,473.21 377.04,471.55 ZM 383.76 463.43 C380.60,459.66 379.77,459.02 378.82,459.61 C378.20,460.00 378.23,459.44 378.91,458.17 C379.52,457.03 381.22,455.52 382.70,454.80 C384.80,453.78 385.41,452.74 385.50,450.00 C385.60,447.46 388.25,442.24 395.16,431.00 C404.25,416.21 467.58,310.31 505.04,247.26 C509.69,239.42 513.79,233.01 514.15,233.01 C514.51,233.00 515.68,234.46 516.75,236.25 C521.79,244.68 571.84,326.68 595.33,365.00 C603.07,377.63 618.96,403.71 623.57,411.35 C625.18,414.02 628.63,419.61 631.23,423.78 C635.12,430.01 635.74,431.62 634.73,432.87 C633.71,434.12 633.76,434.23 635.00,433.50 C636.26,432.76 636.29,432.87 635.22,434.19 C634.17,435.49 634.22,435.87 635.47,436.35 C636.31,436.67 637.01,437.74 637.02,438.72 C637.03,440.09 637.23,440.19 637.88,439.15 C638.56,438.09 639.18,438.28 640.87,440.09 C642.04,441.35 643.00,443.09 643.00,443.97 C643.00,444.84 643.86,446.29 644.91,447.19 C646.76,448.78 646.72,448.93 643.21,452.79 L 639.60 456.77 L 637.87 454.56 C636.91,453.34 634.96,450.15 633.54,447.47 C632.11,444.79 630.35,441.90 629.63,441.05 C628.90,440.20 618.27,423.08 606.00,403.00 C593.73,382.92 581.29,362.67 578.35,358.00 C575.40,353.33 560.03,328.38 544.17,302.56 C528.31,276.74 514.93,255.48 514.42,255.32 C513.91,255.15 490.79,292.93 463.03,339.26 C405.32,435.60 404.09,437.58 398.31,443.85 C393.99,448.54 393.19,450.00 394.97,450.00 C396.49,450.00 395.18,452.41 392.88,453.85 C391.15,454.92 390.93,454.92 391.59,453.82 C392.14,452.91 391.79,452.96 390.44,454.00 C387.72,456.10 386.09,458.34 386.65,459.24 C388.83,462.76 386.29,466.45 383.76,463.43 ZM 357.23 302.52 C357.64,302.07 357.28,301.19 356.43,300.57 C354.86,299.43 355.45,295.54 357.04,296.52 C357.49,296.80 358.14,296.58 358.49,296.02 C358.84,295.46 358.65,295.00 358.07,295.00 C357.49,295.00 357.12,293.86 357.23,292.46 C357.39,290.53 357.93,289.99 359.47,290.21 C361.75,290.54 362.51,294.60 360.70,296.83 C359.94,297.77 359.94,298.35 360.71,298.83 C361.37,299.24 360.76,300.24 359.14,301.42 C357.69,302.47 356.83,302.97 357.23,302.52 ZM 662.25 290.46 C660.77,288.83 660.59,286.00 661.96,286.00 C663.39,286.00 665.32,290.08 664.34,291.02 C663.88,291.47 662.94,291.21 662.25,290.46 ZM 367.45 283.94 C366.42,282.81 365.44,280.79 365.26,279.44 C365.08,278.10 364.02,275.45 362.90,273.56 L 360.88 270.12 L 363.02 267.98 C364.51,266.49 365.89,266.01 367.51,266.41 C368.98,266.78 370.45,266.41 371.43,265.43 C373.39,263.47 373.40,262.54 371.50,260.64 C369.37,258.51 369.57,257.45 373.42,250.58 C375.61,246.66 378.29,243.51 380.85,241.84 C383.91,239.83 384.73,239.60 384.33,240.86 C383.91,242.20 384.00,242.24 384.82,241.08 C385.52,240.09 385.40,239.02 384.44,237.55 C383.16,235.60 383.66,234.46 390.64,223.46 C394.81,216.88 400.50,207.90 403.27,203.50 C406.04,199.10 410.37,192.35 412.88,188.50 C415.39,184.65 418.84,179.25 420.55,176.50 C422.25,173.75 429.42,162.50 436.48,151.50 C448.35,132.98 467.10,103.52 492.78,63.00 C508.87,37.62 513.27,31.00 514.07,31.00 C514.47,31.00 517.32,35.06 520.40,40.01 C523.48,44.97 541.82,73.66 561.15,103.76 C580.48,133.87 601.48,166.60 607.82,176.50 C614.15,186.40 623.62,201.02 628.86,209.00 C638.82,224.18 638.79,224.10 638.15,235.00 C637.94,238.61 637.31,239.96 634.96,241.81 L 632.03 244.13 L 624.37 232.31 C620.16,225.82 614.68,217.35 612.19,213.50 C607.36,206.03 599.13,193.41 583.83,170.00 C573.01,153.44 564.14,139.71 558.84,131.30 C542.92,106.04 515.06,63.52 514.24,63.25 C513.69,63.06 505.95,74.30 497.03,88.21 C470.77,129.19 431.85,190.05 418.82,210.50 C412.16,220.95 405.88,230.43 404.86,231.56 C403.84,232.70 403.00,233.94 403.00,234.32 C403.00,236.26 395.34,246.96 394.25,246.54 C393.56,246.28 393.00,246.50 393.00,247.03 C393.00,247.56 392.17,248.00 391.15,248.00 C390.14,248.00 388.45,248.98 387.40,250.17 C385.83,251.96 385.79,252.24 387.14,251.74 C388.38,251.29 388.65,251.62 388.27,253.07 C387.70,255.25 385.97,255.57 384.22,253.82 C382.20,251.80 381.65,253.78 383.29,257.18 C384.37,259.41 384.56,260.95 383.90,262.18 C382.78,264.27 379.31,266.31 378.13,265.58 C377.67,265.29 376.76,266.23 376.11,267.65 C375.17,269.73 375.22,270.68 376.35,272.42 C377.65,274.40 377.46,275.08 374.14,280.27 C372.14,283.40 370.23,285.96 369.90,285.98 C369.58,285.99 368.47,285.07 367.45,283.94 ZM 387.00 237.11 C387.00,236.62 386.26,235.93 385.36,235.58 C383.99,235.06 383.92,235.20 384.98,236.48 C386.42,238.21 387.00,238.39 387.00,237.11 ZM 668.46 282.21 C668.75,281.92 668.42,280.99 667.74,280.15 C666.75,278.93 666.75,278.77 667.75,279.37 C668.49,279.81 669.01,279.59 669.02,278.81 C669.02,278.09 669.46,276.83 669.98,276.00 C670.79,274.72 671.12,274.78 672.32,276.43 C674.23,279.03 673.34,281.70 670.37,282.27 C669.03,282.53 668.17,282.50 668.46,282.21 ZM 650.00 271.00 C648.69,270.19 648.72,269.85 650.24,268.33 C651.61,266.96 652.25,266.85 653.20,267.80 C654.93,269.53 652.13,272.32 650.00,271.00 ZM 658.18 263.72 C656.60,261.81 658.35,259.66 660.85,260.45 C662.64,261.02 662.77,261.40 661.73,263.06 C660.31,265.34 659.63,265.46 658.18,263.72 ZM 644.25 247.34 C642.61,246.67 642.64,240.87 644.30,238.60 C645.54,236.91 645.74,236.95 647.98,239.27 C650.20,241.58 651.77,245.59 650.03,244.52 C649.59,244.24 648.99,244.92 648.71,246.01 C648.20,247.95 646.80,248.37 644.25,247.34 Z" fill="rgb(245,168,11)"/>
</g>
</svg>